<?xml version="1.0" encoding="UTF-8" standalone="no"?>
<!DOCTYPE svg PUBLIC "-//W3C//DTD SVG 1.1//EN" "http://www.w3.org/Graphics/SVG/1.1/DTD/svg11.dtd">
<svg width="100%" height="100%" viewBox="0 0 137 145" version="1.1" xmlns="http://www.w3.org/2000/svg" xmlns:xlink="http://www.w3.org/1999/xlink" xml:space="preserve" xmlns:serif="http://www.serif.com/" style="fill-rule:evenodd;clip-rule:evenodd;stroke-linejoin:round;stroke-miterlimit:2;">
    <g transform="matrix(1,0,0,1,-1397.055297,-2145)">
        <g transform="matrix(1,0,0,1,503,45)">
            <path d="M963,2100.138L963,2108.22C961.52,2108.075 960.018,2108 958.5,2108C956.982,2108 955.48,2108.075 954,2108.22L954,2100.138C955.488,2100.046 956.989,2100 958.5,2100C960.011,2100 961.512,2100.046 963,2100.138Z" style="fill:rgb(140,107,116);fill-opacity:0.36;"/>
        </g>
        <g transform="matrix(1,0,0,1,503,45)">
            <path d="M988.23,2106.366L984.619,2116.248C982.139,2114.506 979.479,2113.005 976.67,2111.779L979.81,2103.188C982.698,2104.076 985.509,2105.139 988.23,2106.366Z" style="fill:rgb(140,107,116);fill-opacity:0.36;"/>
        </g>
        <g transform="matrix(1,0,0,1,503,45)">
            <path d="M1008.78,2120.288L998.962,2132.282C998.841,2132.185 998.719,2132.087 998.598,2131.991C997.181,2129.358 995.514,2126.881 993.626,2124.591L1001.924,2114.454C1004.329,2116.257 1006.619,2118.206 1008.78,2120.288Z" style="fill:rgb(140,107,116);fill-opacity:0.36;"/>
        </g>
        <g transform="matrix(1,0,0,1,503,45)">
            <path d="M1018.706,2132.117C1020.376,2134.601 1021.898,2137.195 1023.256,2139.884L1003.969,2151.802C1003.846,2148.463 1003.363,2145.214 1002.556,2142.095L1018.706,2132.117Z" style="fill:rgb(140,107,116);fill-opacity:0.36;"/>
        </g>
        <g transform="matrix(1,0,0,1,503,45)">
            <path d="M1028.473,2153.473C1029.254,2156.346 1029.862,2159.29 1030.286,2162.292L1001.233,2169.148C1001.606,2168.132 1001.943,2167.099 1002.244,2166.05C1002.868,2163.874 1003.334,2161.632 1003.629,2159.336L1028.473,2153.473Z" style="fill:rgb(140,107,116);fill-opacity:0.36;"/>
        </g>
        <g transform="matrix(1,0,0,1,503,45)">
            <path d="M1030.669,2179.471C1030.38,2182.493 1029.905,2185.46 1029.256,2188.363L992.618,2183.591C994.858,2181.054 996.819,2178.266 998.454,2175.275L1030.669,2179.471Z" style="fill:rgb(140,107,116);fill-opacity:0.36;"/>
        </g>
        <g transform="matrix(1,0,0,1,503,45)">
            <path d="M1023.002,2205.613C1021.623,2208.292 1020.082,2210.874 1018.392,2213.346L981.584,2192.71C984.427,2191.031 987.072,2189.052 989.476,2186.816L1023.002,2205.613Z" style="fill:rgb(140,107,116);fill-opacity:0.36;"/>
        </g>
        <g transform="matrix(1,0,0,1,503,45)">
            <path d="M1001.224,2231.064L971.863,2197.003C974.908,2196.067 977.817,2194.821 980.553,2193.3L1008.149,2225.313C1005.963,2227.369 1003.651,2229.29 1001.224,2231.064Z" style="fill:rgb(140,107,116);fill-opacity:0.36;"/>
        </g>
        <g transform="matrix(1,0,0,1,503,45)">
            <path d="M957.952,2244.998C956.626,2244.988 955.308,2244.943 954,2244.862L954,2200.032L954,2198.528C954.171,2198.561 954.343,2198.592 954.516,2198.621C955.902,2198.858 957.326,2198.987 958.776,2198.999L958.784,2198.999C958.856,2198.999 958.928,2199 959,2199C959.539,2199.002 960.075,2198.984 960.607,2198.952C960.774,2198.942 960.942,2198.93 961.108,2198.917C961.611,2198.878 962.11,2198.824 962.604,2198.757L963,2199.831L963,2244.862C961.512,2244.954 960.011,2245 958.5,2245L957.952,2244.998Z" style="fill:rgb(140,107,116);fill-opacity:0.36;"/>
        </g>
        <g transform="matrix(1,0,0,1,503,45)">
            <path d="M954,2200.032L938.89,2241.377C936.066,2240.229 933.371,2238.828 930.834,2237.201L946.033,2195.612C946.283,2195.752 946.534,2195.888 946.788,2196.021C949.025,2197.185 951.448,2198.04 954,2198.528L954,2200.032Z" style="fill:rgb(140,107,116);fill-opacity:0.36;"/>
        </g>
        <g transform="matrix(1,0,0,1,503,45)">
            <path d="M945.154,2198.017L920.401,2228.257C918.35,2225.936 916.513,2223.421 914.921,2220.744L939.621,2190.568C939.818,2190.779 940.019,2190.987 940.223,2191.192C941.941,2192.918 943.896,2194.409 946.033,2195.612L945.154,2198.017Z" style="fill:rgb(140,107,116);fill-opacity:0.36;"/>
        </g>
        <g transform="matrix(1,0,0,1,503,45)">
            <path d="M908.238,2200.377L935.035,2183.818C935.171,2184.105 935.312,2184.389 935.458,2184.67C936.575,2186.825 937.98,2188.808 939.621,2190.568L937.971,2192.584L910.102,2209.805C909.187,2206.774 908.556,2203.621 908.238,2200.377Z" style="fill:rgb(140,107,116);fill-opacity:0.36;"/>
        </g>
        <g transform="matrix(1,0,0,1,503,45)">
            <path d="M908.193,2191.104C908.487,2187.771 909.112,2184.533 910.034,2181.422L932.738,2176.064C933.107,2178.803 933.895,2181.41 935.035,2183.818L932.545,2185.357L908.193,2191.104Z" style="fill:rgb(140,107,116);fill-opacity:0.36;"/>
        </g>
        <g transform="matrix(1,0,0,1,503,45)">
            <path d="M913.275,2173.256C914.016,2171.787 914.827,2170.361 915.706,2168.98C916.579,2167.607 917.519,2166.279 918.52,2165.002L918.619,2164.876L933.123,2166.765C932.715,2168.612 932.5,2170.531 932.5,2172.5C932.5,2173.613 932.569,2174.71 932.702,2175.786L913.275,2173.256Z" style="fill:rgb(140,107,116);fill-opacity:0.36;"/>
        </g>
        <g transform="matrix(1,0,0,1,503,45)">
            <path d="M933.385,2165.687L923.1,2159.92C925.43,2157.666 927.982,2155.639 930.718,2153.874L937.165,2157.488C935.466,2159.952 934.174,2162.718 933.385,2165.687Z" style="fill:rgb(140,107,116);fill-opacity:0.36;"/>
        </g>
        <g transform="matrix(1,0,0,1,503,45)">
            <path d="M941.936,2148.501L943.871,2150.746C941.388,2152.477 939.214,2154.622 937.451,2157.082L933.329,2152.301C936.05,2150.774 938.929,2149.497 941.936,2148.501Z" style="fill:rgb(140,107,116);fill-opacity:0.36;"/>
        </g>
        <g transform="matrix(1,0,0,1,503,45)">
            <path d="M952.832,2146.218L953.004,2146.682C950.012,2147.376 947.213,2148.576 944.704,2150.188L943.863,2147.906C946.753,2147.078 949.752,2146.506 952.832,2146.218Z" style="fill:rgb(140,107,116);fill-opacity:0.36;"/>
        </g>
        <g transform="matrix(1,0,0,1,503,45)">
            <path d="M963,2118.248L963,2146.3C961.695,2146.103 960.36,2146 959,2146C958.788,2146 958.577,2146.002 958.366,2146.007C956.877,2146.042 955.419,2146.201 954,2146.472L954,2118.248C955.478,2118.084 956.979,2118 958.5,2118C960.021,2118 961.522,2118.084 963,2118.248Z" style="fill:rgb(140,107,116);fill-opacity:0.36;"/>
        </g>
        <g transform="matrix(1,0,0,1,503,45)">
            <path d="M981.387,2125.091L972.414,2149.646C969.851,2148.137 967.012,2147.047 963.992,2146.47L973.366,2120.82C976.212,2121.945 978.899,2123.383 981.387,2125.091Z" style="fill:rgb(140,107,116);fill-opacity:0.36;"/>
        </g>
        <g transform="matrix(1,0,0,1,503,45)">
            <path d="M993.781,2138.611L979.64,2155.886C977.748,2153.539 975.463,2151.52 972.886,2149.93L988.306,2131.091C990.405,2133.372 992.245,2135.894 993.781,2138.611Z" style="fill:rgb(140,107,116);fill-opacity:0.36;"/>
        </g>
        <g transform="matrix(1,0,0,1,503,45)">
            <path d="M998.848,2154.967L984.127,2164.063C984.113,2164.025 984.1,2163.986 984.087,2163.947C983.113,2161.093 981.665,2158.457 979.837,2156.134L996.896,2145.593C997.901,2148.578 998.566,2151.718 998.848,2154.967Z" style="fill:rgb(140,107,116);fill-opacity:0.36;"/>
        </g>
        <g transform="matrix(1,0,0,1,503,45)">
            <path d="M998.954,2160.439C998.927,2161.019 998.887,2161.596 998.836,2162.169C998.683,2163.862 998.427,2165.524 998.072,2167.151C997.857,2168.138 997.606,2169.112 997.32,2170.072L985.498,2172.861C985.499,2172.741 985.5,2172.621 985.5,2172.5C985.5,2169.551 985.017,2166.714 984.127,2164.063L984.455,2163.86L998.954,2160.439Z" style="fill:rgb(140,107,116);fill-opacity:0.36;"/>
        </g>
        <g transform="matrix(1,0,0,1,503,45)">
            <path d="M995.539,2174.895C994.2,2177.913 992.502,2180.738 990.5,2183.315L983.581,2182.413C984.69,2179.668 985.353,2176.695 985.478,2173.585L995.539,2174.895Z" style="fill:rgb(140,107,116);fill-opacity:0.36;"/>
        </g>
        <g transform="matrix(1,0,0,1,503,45)">
            <path d="M980.828,2192.286L978.166,2190.793C978.206,2190.752 978.245,2190.71 978.285,2190.668C980.31,2188.519 981.981,2186.031 983.203,2183.3L988.153,2186.074C985.969,2188.421 983.51,2190.509 980.828,2192.286Z" style="fill:rgb(140,107,116);fill-opacity:0.36;"/>
        </g>
        <g transform="matrix(1,0,0,1,503,45)">
            <path d="M978.166,2190.793L978.604,2191.039L980.091,2192.763C977.476,2194.415 974.661,2195.776 971.688,2196.801L971.499,2196.865L971.191,2196.031C973.799,2194.676 976.154,2192.9 978.166,2190.793Z" style="fill:rgb(140,107,116);fill-opacity:0.36;"/>
        </g>
        <g transform="matrix(1,0,0,1,503,45)">
            <path d="M962.604,2198.757C962.736,2198.739 962.868,2198.719 963,2198.7C965.868,2198.264 968.587,2197.369 971.076,2196.091C971.115,2196.071 971.153,2196.051 971.191,2196.031L987.079,2239.141C984.337,2240.319 981.508,2241.334 978.605,2242.171L962.604,2198.757Z" style="fill:rgb(140,107,116);fill-opacity:0.36;"/>
        </g>
        <g transform="matrix(1,0,0,1,503,45)">
            <path d="M943.114,2119.85L952.501,2145.318C949.433,2145.646 946.438,2146.221 943.538,2147.025L934.538,2122.605C937.307,2121.495 940.171,2120.571 943.114,2119.85Z" style="fill:rgb(140,107,116);fill-opacity:0.36;"/>
        </g>
        <g transform="matrix(1,0,0,1,503,45)">
            <path d="M916.891,2133.23C917.388,2132.81 917.892,2132.396 918.402,2131.991C920.247,2130.524 922.173,2129.156 924.174,2127.895L941.254,2147.71C938.227,2148.69 935.313,2149.922 932.535,2151.379L916.891,2133.23Z" style="fill:rgb(140,107,116);fill-opacity:0.36;"/>
        </g>
        <g transform="matrix(1,0,0,1,503,45)">
            <path d="M903.444,2148.9C905.024,2146.318 906.781,2143.855 908.698,2141.528L929.418,2153.145C926.594,2154.865 923.935,2156.829 921.468,2159.006L903.444,2148.9Z" style="fill:rgb(140,107,116);fill-opacity:0.36;"/>
        </g>
        <g transform="matrix(1,0,0,1,503,45)">
            <path d="M895.046,2170.881C895.593,2167.876 896.349,2164.944 897.298,2162.099C897.298,2162.099 915.591,2164.301 915.756,2164.876C914.042,2167.017 911.483,2170.461 910.094,2172.842L895.046,2170.881Z" style="fill:rgb(140,107,116);fill-opacity:0.36;"/>
        </g>
        <g transform="matrix(1,0,0,1,503,45)">
            <path d="M895.061,2194.202C894.521,2191.264 894.181,2188.256 894.055,2185.193L905.648,2182.457C904.539,2185.614 903.705,2188.901 903.175,2192.288L895.061,2194.202Z" style="fill:rgb(140,107,116);fill-opacity:0.36;"/>
        </g>
        <g transform="matrix(1,0,0,1,503,45)">
            <path d="M902.498,2214.503C901.004,2211.896 899.686,2209.175 898.562,2206.356L902.573,2203.877C902.742,2207.209 903.203,2210.465 903.93,2213.618L902.498,2214.503Z" style="fill:rgb(140,107,116);fill-opacity:0.36;"/>
        </g>
    </g>
</svg>
